<svg width="28" height="28" viewBox="0 0 28 28" fill="none" xmlns="http://www.w3.org/2000/svg">
<path d="M8.93 28H2.07C1.521 28 0.994489 27.7819 0.606289 27.3937C0.218089 27.0055 0 26.479 0 25.93V2.07C0 1.521 0.218089 0.994489 0.606289 0.606289C0.994489 0.218089 1.521 0 2.07 0H8.94C9.48726 0.00264382 10.0112 0.221899 10.3973 0.609813C10.7833 0.997727 11 1.52273 11 2.07V25.93C11 26.479 10.7819 27.0055 10.3937 27.3937C10.0055 27.7819 9.479 28 8.93 28ZM9 2H2V26H9V2Z" fill="#4b4b4b"/>
<path d="M25.93 28H19.07C18.521 28 17.9945 27.7819 17.6063 27.3937C17.2181 27.0055 17 26.479 17 25.93V2.07C17 1.521 17.2181 0.994489 17.6063 0.606289C17.9945 0.218089 18.521 0 19.07 0H25.94C26.4873 0.00264382 27.0112 0.221899 27.3973 0.609813C27.7833 0.997727 28 1.52273 28 2.07V25.93C28 26.479 27.7819 27.0055 27.3937 27.3937C27.0055 27.7819 26.479 28 25.93 28ZM26 2H19V26H26V2Z" fill="#4b4b4b"/>
</svg>
