<svg width="28" height="28" viewBox="0 0 28 28" fill="none" xmlns="http://www.w3.org/2000/svg">
<path d="M26.7937 12.1817L3.86949 0.31701C3.483 0.116779 3.04033 0.00746858 2.58721 0.000369303C2.13409 -0.00672997 1.68694 0.0886389 1.29195 0.276627C0.900723 0.461695 0.574818 0.731587 0.347752 1.05855C0.120685 1.38551 0.000653706 1.75774 0 2.13697V25.8637C0.00294789 26.4325 0.272764 26.9771 0.750134 27.3777C1.2275 27.7783 1.87336 28.0021 2.54572 28C3.01501 27.9998 3.47519 27.8904 3.87586 27.6836L26.7937 15.8189C27.1621 15.629 27.4665 15.362 27.6778 15.0438C27.889 14.7255 28 14.3667 28 14.0017C28 13.6367 27.889 13.2778 27.6778 12.9596C27.4665 12.6413 27.1621 12.3744 26.7937 12.1844V12.1817ZM2.54572 25.8381V2.15447L25.4302 14.0003L2.54572 25.8381Z" fill="#4b4b4b"/>
</svg>
