<svg width="28" height="28" viewBox="0 0 28 28" fill="none" xmlns="http://www.w3.org/2000/svg">
<path d="M28 14C28 21.7322 21.7322 28 14 28C6.2678 28 0 21.7322 0 14C0 6.2678 6.2678 0 14 0V2.8C11.3183 2.80031 8.72581 3.76278 6.69361 5.51248C4.66142 7.26218 3.32446 9.68296 2.92576 12.3348C2.52706 14.9867 3.09307 17.6935 4.52092 19.9635C5.94877 22.2334 8.14367 23.9156 10.7067 24.7045C13.2697 25.4933 16.0307 25.3364 18.4878 24.2621C20.9449 23.1879 22.935 21.2678 24.0964 18.8507C25.2578 16.4335 25.5134 13.68 24.8167 11.0904C24.1201 8.50079 22.5174 6.24712 20.3 4.739V8.4H17.5V0H25.9V2.8H22.4C24.1395 4.1033 25.5514 5.79412 26.5235 7.73827C27.4955 9.68242 28.0011 11.8264 28 14Z" fill="#4b4b4b"/>
</svg>
